<?xml version="1.0" encoding="utf-8"?>
<svg xmlns="http://www.w3.org/2000/svg"
	xmlns:xlink="http://www.w3.org/1999/xlink"
	width="32px" height="30px" viewBox="0 0 32 30">
<path fillRule="evenodd" d="M-0 30C-0 30-0 17-0 17-0 17 32 17 32 17 32 17 32 30 32 30 32 30-0 30-0 30ZM 15 19C 15 19.55 15.45 20 16 20 16.55 20 17 19.55 17 19 17 19 15 19 15 19ZM 30 19C 30 19 19 19 19 19 19 20.65 17.65 22 16 22 14.35 22 13 20.65 13 19 13 19 2 19 2 19 2 19 2 28 2 28 2 28 30 28 30 28 30 28 30 19 30 19ZM 30 11C 30 11 2 11 2 11 2 11 2 15 2 15 2 15-0 15-0 15-0 15-0 9-0 9-0 9 32 9 32 9 32 9 32 15 32 15 32 15 30 15 30 15 30 15 30 11 30 11ZM 19 5C 19 3.35 17.65 2 16 2 14.35 2 13 3.35 13 5 13 5 13 7 13 7 13 7 9.01 7 9.01 7 9.01 7 9.01 5 9.01 5 9.01 5 11 5 11 5 11 2.24 13.24-0 16-0 18.76-0 21 2.24 21 5 21 5 23 5 23 5 23 5 23 7 23 7 23 7 19 7 19 7 19 7 19 5 19 5Z" fill="rgb(238,63,53)"/></svg>